<?xml version="1.0" encoding="UTF-8"?>
<svg width="21px" height="23px" viewBox="0 0 21 23" version="1.1" xmlns="http://www.w3.org/2000/svg" xmlns:xlink="http://www.w3.org/1999/xlink">
    <!-- Generator: sketchtool 55.2 (78181) - https://sketchapp.com -->
    <title>80CCC2F8-8E2E-4D0D-8D9E-59BE8407DFF8</title>
    <desc>Created with sketchtool.</desc>
    <g id="Admin" stroke="none" stroke-width="1" fill="none" fill-rule="evenodd">
        <g id="Bdc-operator" transform="translate(-657.000000, -84.000000)">
            <g id="Group-2-Copy" transform="translate(652.000000, 80.000000)">
                <g id="Document" transform="translate(5.454545, 4.545455)" fill="#FFFFFF" fill-opacity="0.6">
                    <path d="M18.1243129,0.202959831 L6.45412262,0.202959831 C5.92900372,0.20474988 5.44188887,0.477073927 5.1653277,0.92346723 L1.10613108,4.98266385 C0.645788785,5.25802037 0.364356947,5.75534512 0.365327696,6.29175476 L0.365327696,19.9915433 C0.365327696,20.8322305 1.04683928,21.5137421 1.88752643,21.5137421 L18.1243129,21.5137421 C18.965,21.5137421 19.6465116,20.8322305 19.6465116,19.9915433 L19.6465116,1.72515856 C19.6465116,0.884471417 18.965,0.202959831 18.1243129,0.202959831 Z M4.93192389,3.30824524 L4.93192389,4.76955603 L3.47061311,4.76955603 L4.93192389,3.30824524 Z M18.1243129,19.9915433 L1.88752643,19.9915433 L1.88752643,6.34249471 L1.9179704,6.34249471 L1.94841438,6.31205074 L6.45412262,6.31205074 L6.45412262,1.80634249 L6.4845666,1.77589852 L6.4845666,1.74545455 L18.1040169,1.74545455 L18.1243129,19.9915433 Z" id="Shape"></path>
                    <path d="M15.0799154,11.8731501 L4.93192389,11.8731501 C4.51158032,11.8731501 4.17082452,12.2139059 4.17082452,12.6342495 C4.17082452,13.054593 4.51158032,13.3953488 4.93192389,13.3953488 L15.0799154,13.3953488 C15.500259,13.3953488 15.8410148,13.054593 15.8410148,12.6342495 C15.8410148,12.2139059 15.500259,11.8731501 15.0799154,11.8731501 Z" id="Shape"></path>
                    <path d="M13.5577167,15.4249471 L4.93192389,15.4249471 C4.51158032,15.4249471 4.17082452,15.7657029 4.17082452,16.1860465 C4.17082452,16.6063901 4.51158032,16.9471459 4.93192389,16.9471459 L13.5577167,16.9471459 C13.9780603,16.9471459 14.3188161,16.6063901 14.3188161,16.1860465 C14.3188161,15.7657029 13.9780603,15.4249471 13.5577167,15.4249471 Z" id="Shape"></path>
                    <path d="M11.5281184,9.8435518 L14.5725159,9.8435518 C15.413203,9.8435518 16.0947146,9.16204021 16.0947146,8.32135307 L16.0947146,5.2769556 C16.0947146,4.43626846 15.413203,3.75475687 14.5725159,3.75475687 L11.5281184,3.75475687 C10.6874312,3.75475687 10.0059197,4.43626846 10.0059197,5.2769556 L10.0059197,8.32135307 C10.0059197,9.16204021 10.6874312,9.8435518 11.5281184,9.8435518 Z M11.5281184,5.2769556 L14.5725159,5.2769556 L14.5725159,8.32135307 L11.5281184,8.32135307 L11.5281184,5.2769556 Z" id="Shape"></path>
                </g>
                <rect id="Rectangle" x="0" y="0" width="30" height="30"></rect>
            </g>
        </g>
    </g>
</svg>