<?xml version="1.0" encoding="UTF-8"?>
<svg width="14px" height="16px" viewBox="0 0 14 16" version="1.1" xmlns="http://www.w3.org/2000/svg" xmlns:xlink="http://www.w3.org/1999/xlink">
    <!-- Generator: sketchtool 55.2 (78181) - https://sketchapp.com -->
    <title>8CB5782C-A4E3-42EF-8316-3C2343A2394B</title>
    <desc>Created with sketchtool.</desc>
    <g id="Page-1" stroke="none" stroke-width="1" fill="none" fill-rule="evenodd">
        <g id="Desktop-HD-Copy-5" transform="translate(-548.000000, -727.000000)">
            <g id="ic_insert_invitation" transform="translate(546.000000, 727.000000)">
                <g id="Icon-24px">
                    <path d="M12.75,9 L9,9 L9,12.75 L12.75,12.75 L12.75,9 L12.75,9 Z M12,0.75 L12,2.25 L6,2.25 L6,0.75 L4.5,0.75 L4.5,2.25 L3.75,2.25 C2.9175,2.25 2.2575,2.925 2.2575,3.75 L2.25,14.25 C2.25,15.075 2.9175,15.75 3.75,15.75 L14.25,15.75 C15.075,15.75 15.75,15.075 15.75,14.25 L15.75,3.75 C15.75,2.925 15.075,2.25 14.25,2.25 L13.5,2.25 L13.5,0.75 L12,0.75 L12,0.75 Z M14.25,14.25 L3.75,14.25 L3.75,6 L14.25,6 L14.25,14.25 L14.25,14.25 Z" id="Shape" fill="#D5DADF"></path>
                    <polygon id="Shape" points="0 0 18 0 18 18 0 18"></polygon>
                </g>
            </g>
        </g>
    </g>
</svg>