<?xml version="1.0" encoding="UTF-8"?>
<svg width="20px" height="20px" viewBox="0 0 20 20" version="1.1" xmlns="http://www.w3.org/2000/svg" xmlns:xlink="http://www.w3.org/1999/xlink">
    <!-- Generator: sketchtool 55.2 (78181) - https://sketchapp.com -->
    <title>A60081AC-F3C0-4A6D-9000-EDB908ADC8D6</title>
    <desc>Created with sketchtool.</desc>
    <g id="Page-1" stroke="none" stroke-width="1" fill="none" fill-rule="evenodd">
        <g id="Desktop-HD-Copy-5" transform="translate(-795.000000, -1128.000000)" fill-rule="nonzero">
            <g id="Group-22" transform="translate(795.000000, 1128.000000)">
                <circle id="Oval" fill="#F0F0F0" cx="10" cy="10" r="10"></circle>
                <path d="M5.6521875,13.4782422 L6.52175781,19.3780859 C7.60503906,19.7800781 8.77679687,20 10,20 C14.2996094,20 17.9650781,17.28625 19.3779687,13.4782422 L5.6521875,13.4782422 Z" id="Path" fill="#000000"></path>
                <path d="M5.6521875,6.52175781 L6.52175781,0.621914062 C7.60503906,0.219921875 8.77679687,-9.99200722e-14 10,-9.99200722e-14 C14.2996094,-9.99200722e-14 17.9650781,2.71375 19.3779687,6.52175781 L5.6521875,6.52175781 Z" id="Path" fill="#6DA544"></path>
                <path d="M5.82200954e-13,10 C5.82200954e-13,14.2996484 2.71378906,17.9650781 6.52175781,19.3780078 L6.52175781,0.621992188 C2.71378906,2.03492188 5.82200954e-13,5.70035156 5.82200954e-13,10 Z" id="Path" fill="#A2001D"></path>
            </g>
        </g>
    </g>
</svg>