<?xml version="1.0" encoding="UTF-8"?>
<svg width="20px" height="20px" viewBox="0 0 20 20" version="1.1" xmlns="http://www.w3.org/2000/svg" xmlns:xlink="http://www.w3.org/1999/xlink">
    <!-- Generator: sketchtool 55.2 (78181) - https://sketchapp.com -->
    <title>39E74818-54FE-4F07-9C8A-533AE3291FDF</title>
    <desc>Created with sketchtool.</desc>
    <g id="Page-1" stroke="none" stroke-width="1" fill="none" fill-rule="evenodd">
        <g id="Desktop-HD-Copy-5" transform="translate(-794.000000, -1008.000000)" fill="#D80027" fill-rule="nonzero">
            <g id="Group" transform="translate(794.000000, 1008.000000)">
                <path d="M19.9153516,8.69566406 L11.3044141,8.69566406 L11.304375,8.69566406 L11.304375,0.0846484375 C10.8773828,0.0290625 10.4420703,0 10,0 C9.55785156,0 9.12261719,0.0290625 8.69566406,0.0846484375 L8.69566406,8.69558594 L8.69566406,8.695625 L0.0846484375,8.695625 C0.0290625,9.12261719 0,9.55792969 0,10 C0,10.4421484 0.0290625,10.8773828 0.0846484375,11.3043359 L8.69558594,11.3043359 L8.695625,11.3043359 L8.695625,19.9153516 C9.12261719,19.9709375 9.55785156,20 10,20 C10.4420703,20 10.8773828,19.9709766 11.3043359,19.9153516 L11.3043359,11.3044141 L11.3043359,11.304375 L19.9153516,11.304375 C19.9709375,10.8773828 20,10.4421484 20,10 C20,9.55792969 19.9709375,9.12261719 19.9153516,8.69566406 Z" id="Path"></path>
                <path d="M12.6087109,12.6087109 L12.6087109,12.6087109 L17.0710547,17.0710937 C17.2762891,16.8659375 17.4720703,16.6514453 17.6588672,16.4291016 L13.8384766,12.6087109 L12.6087109,12.6087109 L12.6087109,12.6087109 Z" id="Path"></path>
                <path d="M7.39128906,12.60875 L7.39121094,12.60875 L2.92890625,17.0710547 C3.1340625,17.2762891 3.34855469,17.4720703 3.57089844,17.6588672 L7.39128906,13.8383984 L7.39128906,12.60875 Z" id="Path"></path>
                <path d="M7.39128906,7.39136719 L7.39128906,7.39128906 L2.92894531,2.92890625 C2.72371094,3.1340625 2.52792969,3.34855469 2.34113281,3.57089844 L6.1615625,7.39136719 L7.39128906,7.39136719 L7.39128906,7.39136719 Z" id="Path"></path>
                <path d="M12.6087109,7.39136719 L12.6087109,7.39136719 L17.0710937,2.92894531 C16.8659375,2.72371094 16.6514453,2.52792969 16.4291016,2.34117188 L12.6087109,6.16160156 L12.6087109,7.39136719 L12.6087109,7.39136719 Z" id="Path"></path>
            </g>
        </g>
    </g>
</svg>