<?xml version="1.0" encoding="UTF-8"?>
<svg width="13px" height="13px" viewBox="0 0 13 13" version="1.1" xmlns="http://www.w3.org/2000/svg" xmlns:xlink="http://www.w3.org/1999/xlink">
    <!-- Generator: sketchtool 55.2 (78181) - https://sketchapp.com -->
    <title>E4D53C75-3A41-4B9D-A003-999949581F5B</title>
    <desc>Created with sketchtool.</desc>
    <g id="Page-1" stroke="none" stroke-width="1" fill="none" fill-rule="evenodd">
        <g id="Last-design" transform="translate(-801.000000, -2787.000000)" fill-rule="nonzero">
            <g id="Group-35" transform="translate(0.000000, 1662.000000)">
                <g id="Group-33" transform="translate(150.000000, 1068.000000)">
                    <g id="Group-21" transform="translate(616.000000, 54.000000)">
                        <g id="Group-20">
                            <g id="nigeria-(1)-copy" transform="translate(35.000000, 3.000000)">
                                <path d="M8.6646499,0.371412998 L7.90631656,2.47392453 C8.60627254,4.78391824 8.60627254,8.21245702 7.90631656,10.5225325 L8.6646499,12.6248532 C11.1880398,11.7325136 12.9964025,9.32713208 12.9964025,6.49798323 C12.9964025,3.6693522 11.1880398,1.26375262 8.6646499,0.371412998 Z" id="Path" fill="#518D51"></path>
                                <g id="Group" transform="translate(6.459119, 0.000000)" fill="#E4E4E4">
                                    <path d="M2.2055304,2.47395178 L2.2055304,0.371412998 C1.52784067,0.131744235 0.798968553,0.000109014675 0.039081761,0.000109014675 C1.04109015,0.000109014675 -0.348247379,3.39591614 2.2055304,2.47395178 Z" id="Path"></path>
                                    <path d="M0.039081761,12.9962935 C0.7989413,12.9962935 1.52784067,12.8646583 2.2055304,12.6249895 L2.2055304,10.5226688 C-0.322601677,10.2702725 0.039081761,12.9962935 0.039081761,12.9962935 Z" id="Path"></path>
                                </g>
                                <g id="Group" transform="translate(0.000000, 0.354298)" fill="#589F58">
                                    <path d="M0,6.14379455 C0,8.98237317 1.82057233,11.3943501 4.35720755,12.279304 L4.35720755,0.008721174 C1.82057233,0.893865828 0,3.30562474 0,6.14379455 Z" id="Path"></path>
                                    <path d="M8.6646499,2.11965409 L8.6646499,10.1682621 C9.36468763,7.85818658 9.36468763,4.42962055 8.6646499,2.11965409 Z" id="Path"></path>
                                </g>
                                <path d="M8.6646499,10.5225597 L8.6646499,2.47395178 C8.22221384,1.01350943 7.50020964,0.000109014675 6.49820126,0.000109014675 C5.74777149,0.000109014675 5.02770231,0.128964361 4.35720755,0.363018868 L4.35720755,12.6336017 C5.02770231,12.8676289 5.74777149,12.9962935 6.49820126,12.9962935 C7.50020964,12.9962935 8.22221384,11.9828931 8.6646499,10.5225597 Z" id="Path" fill="#F3F4F5"></path>
                            </g>
                        </g>
                    </g>
                </g>
            </g>
        </g>
    </g>
</svg>