<?xml version="1.0" encoding="UTF-8"?>
<svg width="23px" height="21px" viewBox="0 0 23 21" version="1.1" xmlns="http://www.w3.org/2000/svg" xmlns:xlink="http://www.w3.org/1999/xlink">
    <!-- Generator: sketchtool 55.2 (78181) - https://sketchapp.com -->
    <title>4A9EB9BB-8EA1-4119-8681-B816EE9BD0B2</title>
    <desc>Created with sketchtool.</desc>
    <g id="Admin" stroke="none" stroke-width="1" fill="none" fill-rule="evenodd">
        <g id="Input-rate" transform="translate(-946.000000, -85.000000)">
            <g id="Group-4" transform="translate(942.000000, 80.000000)">
                <g id="Case" transform="translate(3.636364, 5.454545)" fill="#FFFFFF" fill-opacity="0.6">
                    <path d="M20.9052632,3.36842105 L16.1684211,3.36842105 L16.1684211,1.78947368 C16.1684211,0.917445132 15.4615022,0.210526316 14.5894737,0.210526316 L8.27368421,0.210526316 C7.40165566,0.210526316 6.69473684,0.917445132 6.69473684,1.78947368 L6.69473684,3.36842105 L1.95789474,3.36842105 C1.08586618,3.36842105 0.378947368,4.07533987 0.378947368,4.94736842 L0.378947368,18.1052632 C0.378947368,18.9772917 1.08586618,19.6842105 1.95789474,19.6842105 L20.9052632,19.6842105 C21.7772917,19.6842105 22.4842105,18.9772917 22.4842105,18.1052632 L22.4842105,4.94736842 C22.4842105,4.07533987 21.7772917,3.36842105 20.9052632,3.36842105 L20.9052632,3.36842105 Z M8.27368421,1.78947368 L14.5894737,1.78947368 L14.5894737,3.36842105 L8.27368421,3.36842105 L8.27368421,1.78947368 Z M20.9052632,4.94736842 L20.9052632,8.9 C20.7831763,8.89850584 20.6624269,8.92553927 20.5526316,8.97894737 C18.4386341,9.95892015 16.2261116,10.7105426 13.9526316,11.2210526 C13.7182775,10.6137075 13.1351992,10.2124493 12.4842105,10.2105263 L10.3789474,10.2105263 C9.71144478,10.2124023 9.11723595,10.633827 8.89473684,11.2631579 C6.58583811,10.7749816 4.3448411,10.0079527 2.22105263,8.97894737 C2.13058944,8.9341207 2.03227462,8.90730757 1.93157895,8.9 L1.93157895,4.94736842 L20.9052632,4.94736842 Z M12.4842105,11.7894737 L12.4842105,13.3684211 L10.3789474,13.3684211 L10.3789474,11.7894737 L12.4842105,11.7894737 Z M1.95789474,18.1052632 L1.95789474,10.6263158 C4.14418404,11.6383122 6.4401222,12.3942057 8.8,12.8789474 L8.8,13.3684211 C8.8,14.2404496 9.50691882,14.9473684 10.3789474,14.9473684 L12.4842105,14.9473684 C13.3562391,14.9473684 14.0631579,14.2404496 14.0631579,13.3684211 L14.0631579,12.8 C16.4343854,12.3375468 18.7347088,11.5660537 20.9052632,10.5052632 L20.9052632,18.1052632 L1.95789474,18.1052632 Z" id="Shape"></path>
                </g>
                <rect id="Rectangle-Copy-6" x="0" y="0" width="30" height="30"></rect>
            </g>
        </g>
    </g>
</svg>