<?xml version="1.0" encoding="UTF-8"?>
<svg width="19px" height="23px" viewBox="0 0 19 23" version="1.1" xmlns="http://www.w3.org/2000/svg" xmlns:xlink="http://www.w3.org/1999/xlink">
    <!-- Generator: sketchtool 55.2 (78181) - https://sketchapp.com -->
    <title>A0F050B8-C0C0-4C10-BC6B-0DA5EAE58344</title>
    <desc>Created with sketchtool.</desc>
    <g id="Admin" stroke="none" stroke-width="1" fill="none" fill-rule="evenodd">
        <g id="Bdc-operator" transform="translate(-156.000000, -84.000000)">
            <g id="Group-5-Copy" transform="translate(150.000000, 80.000000)">
                <g id="Calculator" transform="translate(6.363636, 4.545455)" fill="#FFFFFF" fill-opacity="0.6">
                    <path d="M16.5818182,0.185686654 L1.72688588,0.185686654 C0.957746577,0.185686654 0.334235977,0.809197254 0.334235977,1.57833656 L0.334235977,20.1470019 C0.334235977,20.9161412 0.957746577,21.5396518 1.72688588,21.5396518 L16.5818182,21.5396518 C17.3509575,21.5396518 17.9744681,20.9161412 17.9744681,20.1470019 L17.9744681,1.57833656 C17.9744681,0.809197254 17.3509575,0.185686654 16.5818182,0.185686654 Z M16.5818182,20.1470019 L1.72688588,20.1470019 L1.72688588,1.57833656 L16.5818182,1.57833656 L16.5818182,20.1470019 Z" id="Shape"></path>
                    <path d="M4.04796905,6.2205029 L14.260735,6.2205029 C15.0298743,6.2205029 15.6533849,5.5969923 15.6533849,4.827853 L15.6533849,3.89941973 C15.6533849,3.13028043 15.0298743,2.50676983 14.260735,2.50676983 L4.04796905,2.50676983 C3.27882975,2.50676983 2.65531915,3.13028043 2.65531915,3.89941973 L2.65531915,4.827853 C2.65531915,5.19720672 2.80204434,5.55143267 3.06321686,5.81260519 C3.32438938,6.07377771 3.67861533,6.2205029 4.04796905,6.2205029 Z M4.04796905,3.89941973 L14.260735,3.89941973 L14.260735,4.827853 L4.04796905,4.827853 L4.04796905,3.89941973 Z" id="Shape"></path>
                    <path d="M4.04796905,10.8626692 L4.97640232,10.8626692 C5.74554162,10.8626692 6.36905222,10.2391586 6.36905222,9.47001934 L6.36905222,8.54158607 C6.36905222,7.77244677 5.74554162,7.14893617 4.97640232,7.14893617 L4.04796905,7.14893617 C3.27882975,7.14893617 2.65531915,7.77244677 2.65531915,8.54158607 L2.65531915,9.47001934 C2.65531915,10.2391586 3.27882975,10.8626692 4.04796905,10.8626692 Z M4.04796905,8.54158607 L4.97640232,8.54158607 L4.97640232,9.47001934 L4.04796905,9.47001934 L4.04796905,8.54158607 Z" id="Shape"></path>
                    <path d="M9.61856867,7.14893617 L8.6901354,7.14893617 C7.92099609,7.14893617 7.29748549,7.77244677 7.29748549,8.54158607 L7.29748549,9.47001934 C7.29748549,10.2391586 7.92099609,10.8626692 8.6901354,10.8626692 L9.61856867,10.8626692 C10.387708,10.8626692 11.0112186,10.2391586 11.0112186,9.47001934 L11.0112186,8.54158607 C11.0112186,7.77244677 10.387708,7.14893617 9.61856867,7.14893617 Z M9.61856867,9.47001934 L8.6901354,9.47001934 L8.6901354,8.54158607 L9.61856867,8.54158607 L9.61856867,9.47001934 Z" id="Shape"></path>
                    <path d="M14.260735,7.14893617 L13.3323017,7.14893617 C12.5631624,7.14893617 11.9396518,7.77244677 11.9396518,8.54158607 L11.9396518,9.47001934 C11.9396518,10.2391586 12.5631624,10.8626692 13.3323017,10.8626692 L14.260735,10.8626692 C15.0298743,10.8626692 15.6533849,10.2391586 15.6533849,9.47001934 L15.6533849,8.54158607 C15.6533849,7.77244677 15.0298743,7.14893617 14.260735,7.14893617 L14.260735,7.14893617 Z M14.260735,9.47001934 L13.3323017,9.47001934 L13.3323017,8.54158607 L14.260735,8.54158607 L14.260735,9.47001934 Z" id="Shape"></path>
                    <path d="M4.04796905,15.040619 L4.97640232,15.040619 C5.74554162,15.040619 6.36905222,14.4171084 6.36905222,13.6479691 L6.36905222,12.7195358 C6.36905222,11.9503965 5.74554162,11.3268859 4.97640232,11.3268859 L4.04796905,11.3268859 C3.27882975,11.3268859 2.65531915,11.9503965 2.65531915,12.7195358 L2.65531915,13.6479691 C2.65531915,14.4171084 3.27882975,15.040619 4.04796905,15.040619 Z M4.04796905,12.7195358 L4.97640232,12.7195358 L4.97640232,13.6479691 L4.04796905,13.6479691 L4.04796905,12.7195358 Z" id="Shape"></path>
                    <path d="M9.61856867,11.3268859 L8.6901354,11.3268859 C7.92099609,11.3268859 7.29748549,11.9503965 7.29748549,12.7195358 L7.29748549,13.6479691 C7.29748549,14.4171084 7.92099609,15.040619 8.6901354,15.040619 L9.61856867,15.040619 C10.387708,15.040619 11.0112186,14.4171084 11.0112186,13.6479691 L11.0112186,12.7195358 C11.0112186,11.9503965 10.387708,11.3268859 9.61856867,11.3268859 Z M9.61856867,13.6479691 L8.6901354,13.6479691 L8.6901354,12.7195358 L9.61856867,12.7195358 L9.61856867,13.6479691 Z" id="Shape"></path>
                    <path d="M14.260735,11.3268859 L13.3323017,11.3268859 C12.5631624,11.3268859 11.9396518,11.9503965 11.9396518,12.7195358 L11.9396518,13.6479691 C11.9396518,14.4171084 12.5631624,15.040619 13.3323017,15.040619 L14.260735,15.040619 C15.0298743,15.040619 15.6533849,14.4171084 15.6533849,13.6479691 L15.6533849,12.7195358 C15.6533849,11.9503965 15.0298743,11.3268859 14.260735,11.3268859 L14.260735,11.3268859 Z M14.260735,13.6479691 L13.3323017,13.6479691 L13.3323017,12.7195358 L14.260735,12.7195358 L14.260735,13.6479691 Z" id="Shape"></path>
                    <path d="M4.04796905,19.2185687 L4.97640232,19.2185687 C5.74554162,19.2185687 6.36905222,18.5950581 6.36905222,17.8259188 L6.36905222,16.8974855 C6.36905222,16.1283462 5.74554162,15.5048356 4.97640232,15.5048356 L4.04796905,15.5048356 C3.27882975,15.5048356 2.65531915,16.1283462 2.65531915,16.8974855 L2.65531915,17.8259188 C2.65531915,18.5950581 3.27882975,19.2185687 4.04796905,19.2185687 Z M4.04796905,16.8974855 L4.97640232,16.8974855 L4.97640232,17.8259188 L4.04796905,17.8259188 L4.04796905,16.8974855 Z" id="Shape"></path>
                    <path d="M9.61856867,15.5048356 L8.6901354,15.5048356 C7.92099609,15.5048356 7.29748549,16.1283462 7.29748549,16.8974855 L7.29748549,17.8259188 C7.29748549,18.5950581 7.92099609,19.2185687 8.6901354,19.2185687 L9.61856867,19.2185687 C10.387708,19.2185687 11.0112186,18.5950581 11.0112186,17.8259188 L11.0112186,16.8974855 C11.0112186,16.1283462 10.387708,15.5048356 9.61856867,15.5048356 Z M9.61856867,17.8259188 L8.6901354,17.8259188 L8.6901354,16.8974855 L9.61856867,16.8974855 L9.61856867,17.8259188 Z" id="Shape"></path>
                    <path d="M14.260735,15.5048356 L13.3323017,15.5048356 C12.5631624,15.5048356 11.9396518,16.1283462 11.9396518,16.8974855 L11.9396518,17.8259188 C11.9396518,18.5950581 12.5631624,19.2185687 13.3323017,19.2185687 L14.260735,19.2185687 C15.0298743,19.2185687 15.6533849,18.5950581 15.6533849,17.8259188 L15.6533849,16.8974855 C15.6533849,16.1283462 15.0298743,15.5048356 14.260735,15.5048356 L14.260735,15.5048356 Z M14.260735,17.8259188 L13.3323017,17.8259188 L13.3323017,16.8974855 L14.260735,16.8974855 L14.260735,17.8259188 Z" id="Shape"></path>
                </g>
                <rect id="Rectangle-Copy-7" x="0" y="0" width="30" height="30"></rect>
            </g>
        </g>
    </g>
</svg>