<?xml version="1.0" encoding="UTF-8"?>
<svg width="23px" height="23px" viewBox="0 0 23 23" version="1.1" xmlns="http://www.w3.org/2000/svg" xmlns:xlink="http://www.w3.org/1999/xlink">
    <!-- Generator: sketchtool 55.2 (78181) - https://sketchapp.com -->
    <title>F13D9CAF-2BEF-4E2E-8E50-0F55A5974F51</title>
    <desc>Created with sketchtool.</desc>
    <g id="Admin" stroke="none" stroke-width="1" fill="none" fill-rule="evenodd">
        <g id="Pervious-Rate" transform="translate(-409.000000, -84.000000)">
            <g id="Group-9" transform="translate(405.000000, 80.000000)">
                <g id="Group-6">
                    <g id="User-2" transform="translate(4.545455, 4.545455)" fill="#FFFFFF">
                        <path d="M11.0157576,0.315151515 C5.12472024,0.315151515 0.349090909,5.09078085 0.349090909,10.9818182 C0.349090909,16.8728555 5.12472024,21.6484848 11.0157576,21.6484848 C16.9067949,21.6484848 21.6824242,16.8728555 21.6824242,10.9818182 C21.6824242,5.09078085 16.9067949,0.315151515 11.0157576,0.315151515 Z M1.80363636,10.9818182 C1.80334182,6.94718211 4.42851811,3.38182055 8.28131307,2.1842149 C12.134108,0.986609259 16.317907,2.4354639 18.6049234,5.75929365 C20.8919399,9.0831234 20.7499439,13.5084133 18.2545455,16.6787879 C17.1431398,15.023405 15.5305755,13.7676779 13.6533333,13.0957576 C14.4646178,12.227347 14.909275,11.0792282 14.8945455,9.89090909 C14.8945455,7.46666667 13.1539394,5.52727273 11.0157576,5.52727273 C8.87757576,5.52727273 7.1369697,7.46666667 7.1369697,9.89090909 C7.12491631,11.1216367 7.60695874,12.3057845 8.47515152,13.1781818 C6.58458717,13.8568327 4.98995797,15.1736878 3.96606061,16.9018182 C2.56833764,15.2460169 1.80223552,13.1486835 1.80363636,10.9818182 L1.80363636,10.9818182 Z M11.2581818,12.6787879 C10.992564,12.679879 10.7271725,12.6944432 10.4630303,12.7224242 C9.2830746,12.2945237 8.52273843,11.1441705 8.59151515,9.89090909 C8.59151515,8.28606061 9.67757576,6.98181818 11.0157576,6.98181818 C12.3539394,6.98181818 13.44,8.28606061 13.44,9.89090909 C13.4997434,11.1089077 12.7846307,12.2321009 11.6557576,12.6933333 C11.5248485,12.6884848 11.3939394,12.6787879 11.2581818,12.6787879 Z M5.04242424,18.0121212 C6.09623211,15.9547815 8.08639656,14.5399555 10.3757576,14.2206061 C10.8477496,14.3127798 11.3341416,14.301199 11.8012121,14.1866667 C14.0637757,14.4921917 16.0614401,15.8180119 17.2218182,17.7842424 C13.8025855,20.9402309 8.56264029,21.0381544 5.02787879,18.0121212 L5.04242424,18.0121212 Z" id="Shape"></path>
                    </g>
                    <rect id="Rectangle-Copy-8" x="0" y="0" width="30" height="30"></rect>
                </g>
            </g>
        </g>
    </g>
</svg>