<?xml version="1.0" encoding="UTF-8"?>
<svg width="23px" height="23px" viewBox="0 0 23 23" version="1.1" xmlns="http://www.w3.org/2000/svg" xmlns:xlink="http://www.w3.org/1999/xlink">
    <!-- Generator: sketchtool 55.2 (78181) - https://sketchapp.com -->
    <title>99C48473-9406-4B90-83C8-0BA2A9344AE2</title>
    <desc>Created with sketchtool.</desc>
    <g id="Admin" stroke="none" stroke-width="1" fill="none" fill-rule="evenodd">
        <g id="Bdc-operator" transform="translate(-1196.000000, -84.000000)">
            <g id="Group-3" transform="translate(1192.000000, 80.000000)">
                <g id="Settings" transform="translate(4.545455, 4.545455)" fill="#FFFFFF" fill-opacity="0.6">
                    <path d="M11.0157576,6.98181818 C8.87356218,6.98181818 7.1369697,8.71841067 7.1369697,10.8606061 C7.1369697,13.0028015 8.87356218,14.7393939 11.0157576,14.7393939 C13.157953,14.7393939 14.8945455,13.0028015 14.8945455,10.8606061 C14.8945455,8.71841067 13.157953,6.98181818 11.0157576,6.98181818 Z M11.0157576,13.2848485 C9.67688545,13.2848485 8.59151515,12.1994782 8.59151515,10.8606061 C8.59151515,9.52173394 9.67688545,8.43636364 11.0157576,8.43636364 C12.3546297,8.43636364 13.44,9.52173394 13.44,10.8606061 C13.44,12.1994782 12.3546297,13.2848485 11.0157576,13.2848485 Z" id="Shape"></path>
                    <path d="M20.2278788,7.95151515 L19.7430303,7.95151515 C19.6109695,7.53469842 19.4489305,7.12798053 19.2581818,6.73454545 L19.5927273,6.4 C20.1599096,5.83211142 20.1599096,4.912131 19.5927273,4.34424242 L17.5369697,2.28848485 C16.9690811,1.72130254 16.0491007,1.72130254 15.4812121,2.28848485 L15.1369697,2.61818182 C14.7435278,2.42744859 14.336811,2.26541004 13.92,2.13333333 L13.92,1.64848485 C13.92,0.845161576 13.2687778,0.193939394 12.4654545,0.193939394 L9.55636364,0.193939394 C8.75304036,0.193939394 8.10181818,0.845161576 8.10181818,1.64848485 L8.10181818,2.13333333 C7.68500715,2.26541004 7.27829039,2.42744859 6.88484848,2.61818182 L6.55030303,2.28363636 C5.98241445,1.71645405 5.06243403,1.71645405 4.49454545,2.28363636 L2.43878788,4.33939394 C1.87160557,4.90728251 1.87160557,5.82726294 2.43878788,6.39515152 L2.77333333,6.72969697 C2.58258461,7.12313204 2.42054561,7.52984993 2.28848485,7.94666667 L1.80363636,7.94666667 C1.00031309,7.94666667 0.349090909,8.59788885 0.349090909,9.40121212 L0.349090909,12.310303 C0.349090909,13.1136263 1.00031309,13.7648485 1.80363636,13.7648485 L2.28848485,13.7648485 C2.42054561,14.1816652 2.58258461,14.5883831 2.77333333,14.9818182 L2.43878788,15.3163636 C1.87160557,15.8842522 1.87160557,16.8042326 2.43878788,17.3721212 L4.49454545,19.4278788 C5.06243403,19.9950611 5.98241445,19.9950611 6.55030303,19.4278788 L6.89454545,19.1030303 C7.28798736,19.2937635 7.69470412,19.4558021 8.11151515,19.5878788 L8.11151515,20.0727273 C8.11151515,20.8760505 8.76273733,21.5272727 9.56606061,21.5272727 L12.4751515,21.5272727 C13.2784748,21.5272727 13.929697,20.8760505 13.929697,20.0727273 L13.929697,19.5878788 C14.346508,19.4558021 14.7532248,19.2937635 15.1466667,19.1030303 L15.4812121,19.4375758 C16.0491007,20.0047581 16.9690811,20.0047581 17.5369697,19.4375758 L19.5927273,17.3818182 C20.1599096,16.8139296 20.1599096,15.8939492 19.5927273,15.3260606 L19.2581818,14.9915152 C19.4489305,14.5980801 19.6109695,14.1913622 19.7430303,13.7745455 L20.2278788,13.7745455 C21.0312021,13.7745455 21.6824242,13.1233233 21.6824242,12.32 L21.6824242,9.41090909 C21.6837129,9.02430027 21.5310357,8.65308414 21.2581157,8.37925442 C20.9851958,8.1054247 20.6144898,7.951513 20.2278788,7.95151515 L20.2278788,7.95151515 Z M20.2278788,12.3151515 L18.6327273,12.3151515 C18.4361331,13.3571882 18.026804,14.3475006 17.430303,15.2242424 L18.5551515,16.3490909 L16.4993939,18.4048485 L15.3745455,17.28 C14.4978699,17.876624 13.5075311,18.285964 12.4654545,18.4824242 L12.4654545,20.0727273 L9.55636364,20.0727273 L9.55636364,18.4775758 C8.5142871,18.2811155 7.52394824,17.8717755 6.64727273,17.2751515 L5.52242424,18.4 L3.46666667,16.3442424 L4.59151515,15.2193939 C3.99501417,14.3426521 3.58568506,13.3523397 3.38909091,12.310303 L1.80363636,12.310303 L1.80363636,9.40121212 L3.39878788,9.40121212 C3.59538203,8.35917544 4.00471114,7.36886308 4.60121212,6.49212121 L3.47636364,5.36727273 L5.53212121,3.31151515 L6.6569697,4.43636364 C7.53371156,3.83986266 8.52402392,3.43053355 9.56606061,3.23393939 L9.56606061,1.64848485 L12.4751515,1.64848485 L12.4751515,3.24363636 C13.5171882,3.44023052 14.5075006,3.84955963 15.3842424,4.44606061 L16.5090909,3.32121212 L18.5648485,5.3769697 L17.430303,6.4969697 C18.026804,7.37371156 18.4361331,8.36402392 18.6327273,9.40606061 L20.2278788,9.40606061 L20.2278788,12.3151515 Z" id="Shape"></path>
                </g>
                <rect id="Rectangle-Copy-5" x="0" y="0" width="30" height="30"></rect>
            </g>
        </g>
    </g>
</svg>