<?xml version="1.0" encoding="UTF-8"?>
<svg width="13px" height="13px" viewBox="0 0 13 13" version="1.1" xmlns="http://www.w3.org/2000/svg" xmlns:xlink="http://www.w3.org/1999/xlink">
    <!-- Generator: sketchtool 55.2 (78181) - https://sketchapp.com -->
    <title>A96ED905-5AF5-45AB-AA5F-857B15CA481C</title>
    <desc>Created with sketchtool.</desc>
    <g id="Page-1" stroke="none" stroke-width="1" fill="none" fill-rule="evenodd">
        <g id="Last-design" transform="translate(-936.000000, -2787.000000)" fill-rule="nonzero">
            <g id="Group-35" transform="translate(0.000000, 1662.000000)">
                <g id="Group-33" transform="translate(150.000000, 1068.000000)">
                    <g id="Group-21" transform="translate(616.000000, 54.000000)">
                        <g id="Group-19" transform="translate(136.000000, 0.000000)">
                            <g id="united-states-copy" transform="translate(34.000000, 3.000000)">
                                <circle id="Oval" fill="#F0F0F0" cx="6.5" cy="6.5" r="6.5"></circle>
                                <g id="Group" transform="translate(0.203125, 1.396484)" fill="#D80027">
                                    <path d="M6.01427734,5.10351562 L12.796875,5.10351562 C12.796875,4.51683984 12.7186719,3.94849609 12.5729551,3.40785352 L6.01427734,3.40785352 L6.01427734,5.10351562 Z" id="Path"></path>
                                    <path d="M6.01427734,1.7122168 L11.8428477,1.7122168 C11.4449512,1.06292773 10.9361992,0.489023438 10.3430234,0.0165546875 L6.01427734,0.0165546875 L6.01427734,1.7122168 Z" id="Path"></path>
                                    <path d="M6.296875,11.6035156 C7.82663477,11.6035156 9.23269141,11.0747812 10.3430234,10.1904766 L2.25072656,10.1904766 C3.36105859,11.0747812 4.76711523,11.6035156 6.296875,11.6035156 Z" id="Path"></path>
                                    <path d="M0.750902344,8.49481445 L11.8428477,8.49481445 C12.1622871,7.97357031 12.4100234,7.40380469 12.5729551,6.79915234 L0.0207949219,6.79915234 C0.183726563,7.40380469 0.431462891,7.97357031 0.750902344,8.49481445 Z" id="Path"></path>
                                </g>
                                <path d="M3.01092188,1.01506641 L3.60325977,1.01506641 L3.0522832,1.41534961 L3.26274609,2.06303906 L2.71179492,1.66275586 L2.16084375,2.06303906 L2.34264063,1.50350586 C1.85752734,1.90759766 1.43233594,2.38103125 1.08194531,2.90854688 L1.27174023,2.90854688 L0.921019531,3.1633418 C0.866378906,3.25449414 0.813972656,3.34709375 0.76375,3.44106445 L0.931226563,3.95651953 L0.618769531,3.72950195 C0.541099609,3.89405859 0.470056641,4.06232227 0.406199219,4.23408984 L0.590712891,4.80202734 L1.27174023,4.80202734 L0.720763672,5.20231055 L0.931226563,5.85 L0.380275391,5.4497168 L0.0502480469,5.68950586 C0.0172148438,5.95504102 0,6.22550195 0,6.5 L6.5,6.5 C6.5,2.91017188 6.5,2.48696094 6.5,0 C5.21594531,0 4.01895508,0.372480469 3.01092188,1.01506641 Z M3.26274609,5.85 L2.71179492,5.4497168 L2.16084375,5.85 L2.37130664,5.20231055 L1.82033008,4.80202734 L2.50135742,4.80202734 L2.71179492,4.15433789 L2.92223242,4.80202734 L3.60325977,4.80202734 L3.0522832,5.20231055 L3.26274609,5.85 Z M3.0522832,3.30883008 L3.26274609,3.95651953 L2.71179492,3.55623633 L2.16084375,3.95651953 L2.37130664,3.30883008 L1.82033008,2.90854688 L2.50135742,2.90854688 L2.71179492,2.26085742 L2.92223242,2.90854688 L3.60325977,2.90854688 L3.0522832,3.30883008 Z M5.59426563,5.85 L5.04331445,5.4497168 L4.49236328,5.85 L4.70282617,5.20231055 L4.15184961,4.80202734 L4.83287695,4.80202734 L5.04331445,4.15433789 L5.25375195,4.80202734 L5.9347793,4.80202734 L5.38380273,5.20231055 L5.59426563,5.85 Z M5.38380273,3.30883008 L5.59426562,3.95651953 L5.04331445,3.55623633 L4.49236328,3.95651953 L4.70282617,3.30883008 L4.15184961,2.90854688 L4.83287695,2.90854688 L5.04331445,2.26085742 L5.25375195,2.90854688 L5.9347793,2.90854688 L5.38380273,3.30883008 Z M5.38380273,1.41534961 L5.59426562,2.06303906 L5.04331445,1.66275586 L4.49236328,2.06303906 L4.70282617,1.41534961 L4.15184961,1.01506641 L4.83287695,1.01506641 L5.04331445,0.367376953 L5.25375195,1.01506641 L5.9347793,1.01506641 L5.38380273,1.41534961 Z" id="Shape" fill="#0052B4"></path>
                            </g>
                        </g>
                    </g>
                </g>
            </g>
        </g>
    </g>
</svg>