<?xml version="1.0" encoding="UTF-8"?>
<svg width="11px" height="11px" viewBox="0 0 11 11" version="1.1" xmlns="http://www.w3.org/2000/svg" xmlns:xlink="http://www.w3.org/1999/xlink">
    <!-- Generator: sketchtool 55.2 (78181) - https://sketchapp.com -->
    <title>C58BD56A-50BE-4F13-93E6-809CA068E288</title>
    <desc>Created with sketchtool.</desc>
    <g id="Page-1" stroke="none" stroke-width="1" fill="none" fill-rule="evenodd">
        <g id="Desktop-HD-Copy-5" transform="translate(-1248.000000, -28.000000)">
            <g id="Group-14" transform="translate(669.000000, 19.000000)">
                <g id="Group-2" transform="translate(568.000000, 0.000000)">
                    <g id="ic_language" transform="translate(10.000000, 8.000000)">
                        <g id="Icon-24px">
                            <polygon id="Shape" points="0 0 13 0 13 13 0 13"></polygon>
                            <path d="M6.49458333,1.08333333 C3.50458333,1.08333333 1.08333333,3.51 1.08333333,6.5 C1.08333333,9.49 3.50458333,11.9166667 6.49458333,11.9166667 C9.49,11.9166667 11.9166667,9.49 11.9166667,6.5 C11.9166667,3.51 9.49,1.08333333 6.49458333,1.08333333 L6.49458333,1.08333333 Z M10.2483333,4.33333333 L8.65041667,4.33333333 C8.47708333,3.65625 8.22791667,3.00625 7.90291667,2.405 C8.89958333,2.74625 9.72833333,3.43958333 10.2483333,4.33333333 L10.2483333,4.33333333 Z M6.5,2.18833333 C6.94958333,2.83833333 7.30166667,3.55875 7.53458333,4.33333333 L5.46541667,4.33333333 C5.69833333,3.55875 6.05041667,2.83833333 6.5,2.18833333 L6.5,2.18833333 Z M2.3075,7.58333333 C2.22083333,7.23666667 2.16666667,6.87375 2.16666667,6.5 C2.16666667,6.12625 2.22083333,5.76333333 2.3075,5.41666667 L4.13833333,5.41666667 C4.095,5.77416667 4.0625,6.13166667 4.0625,6.5 C4.0625,6.86833333 4.095,7.22583333 4.13833333,7.58333333 L2.3075,7.58333333 L2.3075,7.58333333 Z M2.75166667,8.66666667 L4.34958333,8.66666667 C4.52291667,9.34375 4.77208333,9.99375 5.09708333,10.595 C4.10041667,10.25375 3.27166667,9.56583333 2.75166667,8.66666667 L2.75166667,8.66666667 Z M4.34958333,4.33333333 L2.75166667,4.33333333 C3.27166667,3.43416667 4.10041667,2.74625 5.09708333,2.405 C4.77208333,3.00625 4.52291667,3.65625 4.34958333,4.33333333 L4.34958333,4.33333333 Z M6.5,10.8116667 C6.05041667,10.1616667 5.69833333,9.44125 5.46541667,8.66666667 L7.53458333,8.66666667 C7.30166667,9.44125 6.94958333,10.1616667 6.5,10.8116667 L6.5,10.8116667 Z M7.7675,7.58333333 L5.2325,7.58333333 C5.18375,7.22583333 5.14583333,6.86833333 5.14583333,6.5 C5.14583333,6.13166667 5.18375,5.76875 5.2325,5.41666667 L7.7675,5.41666667 C7.81625,5.76875 7.85416667,6.13166667 7.85416667,6.5 C7.85416667,6.86833333 7.81625,7.22583333 7.7675,7.58333333 L7.7675,7.58333333 Z M7.90291667,10.595 C8.22791667,9.99375 8.47708333,9.34375 8.65041667,8.66666667 L10.2483333,8.66666667 C9.72833333,9.56041667 8.89958333,10.25375 7.90291667,10.595 L7.90291667,10.595 Z M8.86166667,7.58333333 C8.905,7.22583333 8.9375,6.86833333 8.9375,6.5 C8.9375,6.13166667 8.905,5.77416667 8.86166667,5.41666667 L10.6925,5.41666667 C10.7791667,5.76333333 10.8333333,6.12625 10.8333333,6.5 C10.8333333,6.87375 10.7791667,7.23666667 10.6925,7.58333333 L8.86166667,7.58333333 L8.86166667,7.58333333 Z" id="Shape" fill="#03B102"></path>
                        </g>
                    </g>
                </g>
            </g>
        </g>
    </g>
</svg>